<svg width="375px" xmlns="http://www.w3.org/2000/svg" viewBox="96.38000274658202 26.779998779296875 382.24000549316406 485.0399971008301"><rect height="100%" width="100%" x="96.38000274658202" y="26.779998779296875" fill="rgba(255, 218, 218, 1)"/> <svg xmlns="http://www.w3.org/2000/svg" viewBox="-0.00993489008396864 0 93.50991821289062 119.82999420166016" height="264" width="206.0136988646946" y="96.77999877929688" x="172.36" preserveAspectRatio="xMinYMin" style="overflow: visible;"><path id="Layer_1-2" dataName="Layer 1" class="cls-1" d="M43.67,56c.06-.53.12-1,.2-1.58C43.79,55,43.73,55.47,43.67,56Z" style="fill: none;"></path><path id="Layer_1-2" dataName="Layer 1" class="cls-1" d="M44.29,70l-.09-.52Z" style="fill: none;"></path><path id="Layer_1-2" dataName="Layer 1" class="cls-1" d="M43.39,61q0-1.08.06-2.13Q43.39,59.9,43.39,61Z" style="fill: none;"></path><path id="Layer_1-2" dataName="Layer 1" class="cls-1" d="M44,53.75h0c0,.05,0,.11,0,.16l0-.17Z" style="fill: none;"></path><path id="Layer_1-2" dataName="Layer 1" class="cls-1" d="M43.48,58.2c0-.5.07-1,.12-1.5C43.55,57.2,43.52,57.7,43.48,58.2Z" style="fill: none;"></path><path id="Layer_1-2" dataName="Layer 1" class="cls-1" d="M43.55,64.56c0-.28,0-.55-.07-.83C43.5,64,43.52,64.28,43.55,64.56Z" style="fill: none;"></path><path id="Layer_1-2" dataName="Layer 1" class="cls-1" d="M44.93,72.78h0s0-.11,0-.17Z" style="fill: none;"></path><path id="Layer_1-2" dataName="Layer 1" class="cls-1" d="M43.85,67.37c0-.29-.08-.58-.11-.86C43.77,66.79,43.81,67.08,43.85,67.37Z" style="fill: none;"></path><path id="Layer_1-2" dataName="Layer 1" class="cls-2" d="M45.19,48.24c0,.17-.08.35-.13.51a45.23,45.23,0,0,1,5.58-12.42v-11A13.16,13.16,0,0,0,37.48,12.2h-3A13.15,13.15,0,0,0,21.31,25.35v3.34A43.42,43.42,0,0,1,45.19,48.24Z" style="fill: #ff718d; fill-opacity: 1;"></path><path id="Layer_1-2" dataName="Layer 1" class="cls-2" d="M44.43,51.32c.06-.3.13-.58.2-.87C44.56,50.74,44.49,51,44.43,51.32Z" style="fill: #ff718d; fill-opacity: 1;"></path><path id="Layer_1-2" dataName="Layer 1" class="cls-2" d="M44.05,53.27c0,.16-.06.32-.09.48h0C44,53.59,44,53.43,44.05,53.27Z" style="fill: #ff718d; fill-opacity: 1;"></path><path id="Layer_1-2" dataName="Layer 1" class="cls-3" d="M44.93,72.78l0-.17c-.23-.85-.43-1.71-.61-2.58l-.09-.52c-.13-.71-.25-1.42-.35-2.14,0-.29-.08-.58-.11-.86-.08-.65-.14-1.3-.19-2,0-.28,0-.55-.07-.83,0-.91-.09-1.83-.09-2.75q0-1.08.06-2.13l0-.65c0-.5.07-1,.12-1.5,0-.23,0-.47.07-.7.06-.53.12-1,.2-1.58,0-.17,0-.33.07-.5s0-.11,0-.16a47.68,47.68,0,0,1-6.69.47,47.89,47.89,0,0,1-16-2.72V88.87c0,.25,0,.51,0,.76A30.92,30.92,0,0,1,44.93,72.78Z" style="fill: #1348b7; fill-opacity: 1;"></path><path id="Layer_1-2" dataName="Layer 1" class="cls-4" d="M37.27,54.23A47.68,47.68,0,0,0,44,53.76h0c0-.16.07-.32.09-.48.12-.65.24-1.31.38-2,.06-.3.13-.58.2-.87.13-.57.28-1.14.43-1.7,0-.16.09-.34.13-.51A43.42,43.42,0,0,0,21.31,28.69V51.51A47.89,47.89,0,0,0,37.27,54.23Z" style="fill: #3263c9;"></path><path id="Layer_1-2" dataName="Layer 1" class="cls-5" d="M55.09,77.57l.36.05Z" style="fill: #faca2b;"></path><path id="Layer_1-2" dataName="Layer 1" class="cls-5" d="M79.66,99.75A11.18,11.18,0,0,0,77.1,77.68h-11A30.85,30.85,0,0,1,79.66,99.75Z" style="fill: #faca2b;"></path><path id="Layer_1-2" dataName="Layer 1" class="cls-5" d="M53.14,76.77l.25.15Z" style="fill: #faca2b;"></path><path id="Layer_1-2" dataName="Layer 1" class="cls-5" d="M52.54,76.31l-.21-.19Z" style="fill: #faca2b;"></path><path id="Layer_1-2" dataName="Layer 1" class="cls-5" d="M53.59,77l.27.13Z" style="fill: #faca2b;"></path><path id="Layer_1-2" dataName="Layer 1" class="cls-5" d="M54.57,77.44l.31.08Z" style="fill: #faca2b;"></path><path id="Layer_1-2" dataName="Layer 1" class="cls-5" d="M79.52,99.78c-.26.06-.53.1-.8.14C79,99.88,79.26,99.84,79.52,99.78Z" style="fill: #faca2b;"></path><path id="Layer_1-2" dataName="Layer 1" class="cls-5" d="M54.07,77.26l.28.1Z" style="fill: #faca2b;"></path><path id="Layer_1-2" dataName="Layer 1" class="cls-5" d="M78.33,100c-.4,0-.81.07-1.23.07C77.52,100.05,77.93,100,78.33,100Z" style="fill: #faca2b;"></path><path id="Layer_1-2" dataName="Layer 1" class="cls-5" d="M55.63,77.65a4.93,4.93,0,0,0,.55,0A4.93,4.93,0,0,1,55.63,77.65Z" style="fill: #faca2b;"></path><path id="Layer_1-2" dataName="Layer 1" class="cls-5" d="M50.79,73.41c0,.1.05.19.07.29C50.84,73.6,50.81,73.51,50.79,73.41Z" style="fill: #faca2b;"></path><path id="Layer_1-2" dataName="Layer 1" class="cls-5" d="M51.37,74.89l.15.24Z" style="fill: #faca2b;"></path><path id="Layer_1-2" dataName="Layer 1" class="cls-5" d="M51.13,74.42c0,.09.08.17.13.26C51.21,74.59,51.17,74.51,51.13,74.42Z" style="fill: #faca2b;"></path><path id="Layer_1-2" dataName="Layer 1" class="cls-5" d="M50.69,72.88a2.5,2.5,0,0,0,.05.29A2.5,2.5,0,0,1,50.69,72.88Z" style="fill: #faca2b;"></path><path id="Layer_1-2" dataName="Layer 1" class="cls-5" d="M50.94,73.93c0,.09.06.18.1.27C51,74.11,51,74,50.94,73.93Z" style="fill: #faca2b;"></path><path id="Layer_1-2" dataName="Layer 1" class="cls-5" d="M52.72,76.46l.23.17Z" style="fill: #faca2b;"></path><path id="Layer_1-2" dataName="Layer 1" class="cls-5" d="M51.65,75.33l.17.22Z" style="fill: #faca2b;"></path><path id="Layer_1-2" dataName="Layer 1" class="cls-5" d="M52,75.74l.19.21Z" style="fill: #faca2b;"></path><path id="Layer_1-2" dataName="Layer 1" class="cls-5" d="M44.63,50.45c-.07.29-.14.57-.2.87-.14.64-.26,1.3-.38,2,0,.16-.06.32-.08.48l0,.17c0,.17,0,.33-.07.5-.08.53-.14,1-.2,1.58,0,.23-.05.47-.07.7-.05.5-.08,1-.12,1.5l0,.65q-.06,1-.06,2.13c0,.92,0,1.84.09,2.75,0,.28,0,.55.07.83.05.65.11,1.3.19,2,0,.28.07.57.11.86.1.72.22,1.43.35,2.14l.09.52c.18.87.38,1.73.61,2.58,0,.06,0,.12,0,.17A31.91,31.91,0,0,1,49,72.52c.56,0,1.11,0,1.66,0,0,0,0,0,0,.07,0-.16,0-.33,0-.5V36.33a45.23,45.23,0,0,0-5.58,12.42C44.91,49.31,44.76,49.88,44.63,50.45Z" style="fill: #faca2b;"></path><path id="Layer_1-2" dataName="Layer 1" class="cls-6" d="M48.94,82.8a43.23,43.23,0,0,1-10.33,17.25H65.46A45.83,45.83,0,0,1,48.94,82.8Z" style="fill: #ee3923;"></path><path id="Layer_1-2" dataName="Layer 1" class="cls-7" d="M44.93,72.78A30.92,30.92,0,0,0,21.34,89.63a1.48,1.48,0,0,1,0,.21l.06.5.09.59c0,.17.07.33.11.49s.09.38.15.57a3.68,3.68,0,0,0,.15.47,4.3,4.3,0,0,0,.2.54c.06.16.12.31.19.46s.16.34.25.51.15.29.23.43a4.94,4.94,0,0,0,.3.49,4.81,4.81,0,0,0,.27.41l.34.45.3.38.38.42.34.34c.14.14.28.26.42.39l.37.31.46.34.39.28c.16.11.33.2.5.3s.27.17.41.24l.54.26.42.19c.19.08.39.15.58.21l.43.16.63.16.42.1c.24,0,.48.08.73.11l.36,0a10.37,10.37,0,0,0,1.12.06h6.12A43.23,43.23,0,0,0,48.94,82.8,45.61,45.61,0,0,1,44.93,72.78Z" style="fill: #e12028;"></path><path id="Layer_1-2" dataName="Layer 1" class="cls-8" d="M77.1,100.05c.42,0,.83,0,1.23-.07l.39-.06c.27,0,.54-.08.8-.14l.14,0A30.85,30.85,0,0,0,66.09,77.68H56.18a4.93,4.93,0,0,1-.55,0l-.18,0-.36-.05-.21,0-.31-.08-.22-.08-.28-.1-.21-.1L53.59,77l-.2-.11-.25-.15L53,76.63l-.23-.17-.18-.15-.21-.19L52.16,76,52,75.74l-.15-.19-.17-.22-.13-.2-.15-.24a2.12,2.12,0,0,1-.11-.21c0-.09-.09-.17-.13-.26L51,74.2c0-.09-.07-.18-.1-.27s0-.16-.08-.23,0-.19-.07-.29a2,2,0,0,1,0-.24,2.5,2.5,0,0,1-.05-.29l0-.25s0,0,0-.07c-.55,0-1.1,0-1.66,0a31.91,31.91,0,0,0-4.05.26h0a45.66,45.66,0,0,0,20.53,27.27Z" style="fill: #ff5a0b;"></path><circle id="Layer_1-2" dataName="Layer 1" class="cls-5" cx="66.64" cy="51.09" r="7.15" style="fill: #faca2b;"></circle><path id="Layer_1-2" dataName="Layer 1" class="cls-5" d="M64.57,63.58A4.5,4.5,0,1,0,64,69.91,4.49,4.49,0,0,0,64.57,63.58Z" style="fill: #faca2b;"></path><path id="Layer_1-2" dataName="Layer 1" class="cls-6" d="M48.5,109.93a4.5,4.5,0,1,0,4.77,4.21A4.5,4.5,0,0,0,48.5,109.93Z" style="fill: #ee3923;"></path><circle id="Layer_1-2" dataName="Layer 1" class="cls-6" cx="85.59" cy="111.92" r="7.91" style="fill: #ee3923;"></circle><circle id="Layer_1-2" dataName="Layer 1" class="cls-9" cx="36.95" cy="111.11" r="3.18" style="fill: #f15942;"></circle><circle id="Layer_1-2" dataName="Layer 1" class="cls-2" cx="26.2" cy="6.33" r="3.18" style="fill: #ff718d; fill-opacity: 1;"></circle><circle id="Layer_1-2" dataName="Layer 1" class="cls-2" cx="11.58" cy="8.01" r="8.01" style="fill: #ff718d; fill-opacity: 1;"></circle><path id="Layer_1-2" dataName="Layer 1" class="cls-3" d="M14.31,66.87A7.16,7.16,0,1,0,7.15,74,7.16,7.16,0,0,0,14.31,66.87Z" style="fill: #1348b7; fill-opacity: 1;"></path><path id="Layer_1-2" dataName="Layer 1" class="cls-3" d="M14.22,48.87a5.06,5.06,0,1,0-5.06,5.06A5.07,5.07,0,0,0,14.22,48.87Z" style="fill: #1348b7; fill-opacity: 1;"></path></svg> <svg y="384.7799987792969" viewBox="5 19.549999237060547 242.24000549316406 57.03999710083008" x="166.38000274658202" height="57.03999710083008" width="242.24000549316406" style="overflow: visible;"><g fill="#ff718d" fill-opacity="1" style=""><path d="M42.75 65.04L42.75 75.83L5.00 75.83L5.00 21.92L15.79 21.92L15.79 65.04L42.75 65.04ZM80.51 42.79L61.26 65.98Q61.86 66.17 62.46 66.23Q63.07 66.28 63.67 66.28L63.67 66.28Q65.17 66.28 66.56 65.87Q67.95 65.46 69.18 64.69Q70.40 63.92 71.36 62.81Q72.32 61.70 72.92 60.34L72.92 60.34L80.44 67.90Q79.01 69.93 77.15 71.55Q75.29 73.17 73.12 74.29Q70.96 75.42 68.57 76.00Q66.19 76.59 63.67 76.59L63.67 76.59Q59.42 76.59 55.68 75.01Q51.94 73.43 49.14 70.61Q46.34 67.79 44.72 63.90Q43.10 60.01 43.10 55.34L43.10 55.34Q43.10 50.57 44.72 46.62Q46.34 42.67 49.14 39.89Q51.94 37.11 55.68 35.57Q59.42 34.03 63.67 34.03L63.67 34.03Q66.19 34.03 68.59 34.63Q71.00 35.23 73.16 36.36Q75.32 37.48 77.20 39.12Q79.08 40.76 80.51 42.79L80.51 42.79ZM54.57 60.68L66.53 44.82Q65.81 44.55 65.12 44.48Q64.42 44.40 63.67 44.40L63.67 44.40Q61.56 44.40 59.70 45.17Q57.84 45.94 56.47 47.37Q55.10 48.80 54.31 50.81Q53.52 52.82 53.52 55.34L53.52 55.34Q53.52 55.91 53.57 56.62Q53.63 57.34 53.76 58.07Q53.89 58.80 54.08 59.48Q54.27 60.16 54.57 60.68L54.57 60.68ZM95.00 70.68L95.00 75.83L84.66 75.83L84.66 19.55L95.00 19.55L95.00 55.04L110.30 35.64L122.11 35.64L108.76 52.41L122.11 75.83L110.30 75.83L102.15 61.21L95.00 70.68ZM159.20 42.79L139.95 65.98Q140.55 66.17 141.15 66.23Q141.75 66.28 142.35 66.28L142.35 66.28Q143.86 66.28 145.25 65.87Q146.64 65.46 147.86 64.69Q149.08 63.92 150.04 62.81Q151 61.70 151.60 60.34L151.60 60.34L159.12 67.90Q157.69 69.93 155.83 71.55Q153.97 73.17 151.81 74.29Q149.65 75.42 147.26 76.00Q144.87 76.59 142.35 76.59L142.35 76.59Q138.10 76.59 134.36 75.01Q130.62 73.43 127.82 70.61Q125.02 67.79 123.40 63.90Q121.79 60.01 121.79 55.34L121.79 55.34Q121.79 50.57 123.40 46.62Q125.02 42.67 127.82 39.89Q130.62 37.11 134.36 35.57Q138.10 34.03 142.35 34.03L142.35 34.03Q144.87 34.03 147.28 34.63Q149.68 35.23 151.85 36.36Q154.01 37.48 155.89 39.12Q157.77 40.76 159.20 42.79L159.20 42.79ZM133.25 60.68L145.21 44.82Q144.50 44.55 143.80 44.48Q143.10 44.40 142.35 44.40L142.35 44.40Q140.25 44.40 138.39 45.17Q136.52 45.94 135.15 47.37Q133.78 48.80 132.99 50.81Q132.20 52.82 132.20 55.34L132.20 55.34Q132.20 55.91 132.26 56.62Q132.31 57.34 132.45 58.07Q132.58 58.80 132.77 59.48Q132.95 60.16 133.25 60.68L133.25 60.68ZM203.65 55.34L203.65 55.34Q203.65 60.08 202.04 63.99Q200.42 67.90 197.64 70.70Q194.85 73.50 191.11 75.04Q187.37 76.59 183.09 76.59L183.09 76.59Q178.84 76.59 175.10 75.01Q171.36 73.43 168.55 70.61Q165.75 67.79 164.14 63.90Q162.52 60.01 162.52 55.34L162.52 55.34L162.52 19.55L172.82 19.55L172.82 38.35Q173.65 37.30 174.83 36.47Q176.02 35.64 177.39 35.12Q178.76 34.59 180.23 34.31Q181.69 34.03 183.09 34.03L183.09 34.03Q187.37 34.03 191.11 35.62Q194.85 37.22 197.64 40.08Q200.42 42.94 202.04 46.83Q203.65 50.72 203.65 55.34ZM193.31 55.34L193.31 55.34Q193.31 53.01 192.50 51.00Q191.70 48.99 190.30 47.52Q188.91 46.06 187.05 45.23Q185.19 44.40 183.09 44.40L183.09 44.40Q180.98 44.40 179.12 45.32Q177.26 46.25 175.87 47.77Q174.48 49.29 173.69 51.26Q172.90 53.24 172.90 55.34L172.90 55.34Q172.90 57.67 173.69 59.67Q174.48 61.66 175.87 63.13Q177.26 64.59 179.12 65.44Q180.98 66.28 183.09 66.28L183.09 66.28Q185.19 66.28 187.05 65.44Q188.91 64.59 190.30 63.13Q191.70 61.66 192.50 59.67Q193.31 57.67 193.31 55.34ZM247.24 55.34L247.24 55.34Q247.24 59.86 245.63 63.75Q244.01 67.64 241.23 70.48Q238.44 73.32 234.70 74.95Q230.96 76.59 226.68 76.59L226.68 76.59Q222.43 76.59 218.69 74.95Q214.95 73.32 212.15 70.48Q209.34 67.64 207.73 63.75Q206.11 59.86 206.11 55.34L206.11 55.34Q206.11 50.76 207.73 46.85Q209.34 42.94 212.15 40.10Q214.95 37.26 218.69 35.64Q222.43 34.03 226.68 34.03L226.68 34.03Q230.96 34.03 234.70 35.55Q238.44 37.07 241.23 39.87Q244.01 42.67 245.63 46.60Q247.24 50.53 247.24 55.34ZM236.90 55.34L236.90 55.34Q236.90 52.86 236.09 50.85Q235.29 48.84 233.90 47.39Q232.50 45.94 230.64 45.17Q228.78 44.40 226.68 44.40L226.68 44.40Q224.57 44.40 222.71 45.17Q220.85 45.94 219.48 47.39Q218.10 48.84 217.31 50.85Q216.53 52.86 216.53 55.34L216.53 55.34Q216.53 57.67 217.31 59.67Q218.10 61.66 219.48 63.13Q220.85 64.59 222.71 65.44Q224.57 66.28 226.68 66.28L226.68 66.28Q228.78 66.28 230.64 65.50Q232.50 64.71 233.90 63.28Q235.29 61.85 236.09 59.82Q236.90 57.79 236.90 55.34Z" transform="translate(0, 0)"></path></g></svg></svg>